<svg xmlns="http://www.w3.org/2000/svg" viewBox="0 0 1024 1024" role="img" aria-label="Vinago+ app icon">
  <rect width="1024" height="1024" rx="188" fill="#da251d"/>
  <rect x="52" y="52" width="920" height="920" rx="150" fill="#f0443a" opacity="0.18"/>
  <path d="M116 728c126-120 222-100 326-8 106 94 238 114 434-106" fill="none" stroke="#fdebea" stroke-width="30" stroke-linecap="round" opacity="0.2"/>
  <path d="M156 334c120-72 242-78 356 0 108 74 216 84 352 18" fill="none" stroke="#ffd23f" stroke-width="24" stroke-linecap="round" opacity="0.22"/>
  <g>
    <path d="M292 302 512 734 732 302" fill="none" stroke="#7f100b" stroke-width="132" stroke-linecap="round" stroke-linejoin="round" opacity="0.22"/>
    <path d="M292 302 512 734 732 302" fill="none" stroke="#fff7f7" stroke-width="112" stroke-linecap="round" stroke-linejoin="round"/>
    <path d="M292 302 512 734 732 302" fill="none" stroke="#ffd23f" stroke-width="42" stroke-linecap="round" stroke-linejoin="round" opacity="0.98"/>
    <circle cx="738" cy="286" r="92" fill="#ffd23f"/>
    <path d="M738 232v108M684 286h108" fill="none" stroke="#da251d" stroke-width="42" stroke-linecap="round"/>
  </g>
</svg>
